<mxfile host="65bd71144e">
    <diagram id="_2GlG-kz3wdyfEAoAUrY" name="Page-1">
        <mxGraphModel dx="1146" dy="757" grid="1" gridSize="10" guides="1" tooltips="1" connect="1" arrows="1" fold="1" page="1" pageScale="1" pageWidth="850" pageHeight="1100" math="0" shadow="0">
            <root>
                <mxCell id="0"/>
                <mxCell id="1" parent="0"/>
                <mxCell id="2" value="" style="whiteSpace=wrap;html=1;aspect=fixed;" vertex="1" parent="1">
                    <mxGeometry x="100" y="40" width="680" height="680" as="geometry"/>
                </mxCell>
                <mxCell id="3" value="" style="rounded=0;whiteSpace=wrap;html=1;fillColor=#474747;fontColor=#ffffff;strokeColor=#18141d;strokeWidth=0;" vertex="1" parent="1">
                    <mxGeometry x="100" y="40" width="680" height="90" as="geometry"/>
                </mxCell>
                <mxCell id="4" value="" style="rounded=0;whiteSpace=wrap;html=1;fillColor=#474747;rotation=90;strokeColor=#18141d;strokeWidth=0;" vertex="1" parent="1">
                    <mxGeometry x="-113.75" y="341.25" width="592.5" height="165" as="geometry"/>
                </mxCell>
            </root>
        </mxGraphModel>
    </diagram>
</mxfile>